<?xml version="1.0" encoding="utf-8"?>
<!-- Generator: Adobe Illustrator 18.1.1, SVG Export Plug-In . SVG Version: 6.00 Build 0)  -->
<svg version="1.1" id="Layer_1" xmlns="http://www.w3.org/2000/svg" xmlns:xlink="http://www.w3.org/1999/xlink" x="0px" y="0px"
	 viewBox="0 0 864 864" enable-background="new 0 0 864 864" xml:space="preserve">
<style>
	path { fill: white; }
</style>
<path d="M436.2,784.5c3.1-5.3,25.2-54.6,32-80.9c11.7-42.2,9.4-99.3,9.6-109.1c0.3-13.1-0.7-26.2-1.9-39.3
	c-1.4-14.6-2.8-29.1-5.2-43.6c-0.5-2.9-0.9-5.8-1.4-8.8c-0.4-2.2-0.8-2.5-3.1-2.1c-1.4,0.3-2.8,0.5-4.2,0.8c-3,0.8-3.8,2-3.2,5.1
	c0.4,2.4,0.9,4.7,1.2,7.1c1.6,13.7,3.1,27.5,4.6,41.2c1.1,10.3,1.9,20.6,2.1,30.9c0.3,12.6,0,25.3-0.3,37.9
	c-0.2,7.8,0,15.7-0.7,23.5c-0.8,9.2-2,18.3-3.6,27.3c-3,16.7-7.1,33.1-12.7,49.2c-4.6,13.2-10.3,26-15.9,38.8
	c-2.3,5.3-4.6,10.6-7,15.8c-1.4,3.1-2.8,3.6-5.9,2.2c-3.5-1.6-99.1-44.3-136.2-73.9c-16.7-10.6-32.3-22.8-47.6-35.3
	c-13.2-10.9-26.2-22-38.6-33.9c-11.2-10.8-21.4-22.5-31.8-34c-10.6-11.8-20.4-24.2-29.2-37.4c-6.7-10.1-13.3-20.2-20-30.2
	c-7.9-11.9-55.6-87.4-65.5-175c-1.4-11.9-2.4-23.9-2.9-35.9c-0.1-2.4-1.9-34.7,0.7-57.2c1.7-14.6,4.7-28.9,9-42.9
	c4.3-14.1,9.8-27.7,17.6-40.3c4.7-7.6,9.7-15,14.8-22.4c6.8-10.1,14.9-19,24.2-26.8c4.8-4,9.7-7.9,14.5-11.8
	c8-6.4,16.4-12.3,25.3-17.3c11.4-6.4,23.1-12.3,35.6-16.6c12.8-4.3,26.1-6.3,39.4-8.2c33.7-3.8,60.5,2.4,71,5.1
	c11.4,3,22.1,7.8,32.6,13.2c14.7,7.4,28.1,16.5,39.9,28c7.6,7.5,14.3,15.7,20.5,24.4c7.5,10.5,14.4,21.3,19.6,33.2
	c4.7,10.8,8,22.1,10.5,33.6c0.2,0.8,0.3,1.7,0.7,2.4c0.8-0.2,0.9-0.8,1.1-1.3c1.8-3.4,3.7-6.7,5.5-10.1c12.8-25.9,31-47.6,52.6-66.6
	c12-10.5,25.6-18.9,39.3-26.9c5.6-3.3,11.5-5.9,17.7-8c8.7-2.9,17.5-5.6,26.4-8c9.4-2.5,18.8-4.5,28.5-5.3c5-0.4,10-0.9,15.1-1.3
	c4.3-0.4,8.6-0.7,12.9-1c8.8-0.5,17.6,0.4,26.3,1.8c21.9,3.6,42.7,10.6,61.8,22.1c13.7,8.2,26.8,17.4,39.3,27.4
	c9.3,7.4,17.3,16.1,24.2,25.8c5.8,8.1,10.9,16.5,15.8,25.2c7.4,13.4,12.9,27.5,16.4,42.4c2.3,10,4.3,20.2,6.2,30.3
	c1,5,1.7,10.1,2.3,15.2c2.8,50.7-1.8,92.3-2.7,98.4c-2.6,16.6-5.9,33.1-10.8,49.1c-7.1,23.3-17.2,45.3-29.2,66.4
	c-12.2,21.7-25.8,42.5-40,63c-8.1,11.7-16.4,23.1-25.9,33.6c-8.8,9.7-17.6,19.5-26.5,29.1c-10.1,10.8-20.7,21.2-32.1,30.6
	c-8.4,6.9-16.9,13.7-25.2,20.7c-32.7,27.6-67.9,51.6-104.2,73.9C464.2,777.9,437.8,784.5,436.2,784.5z M649,198.2
	c-1.2,1.5-2.1,2.4-2.9,3.4c-2.3,2.8-4.7,5.4-7.5,7.8c-5.7,4.8-12.2,6.7-19.6,5.6c-5.3-0.8-9.8-3.2-14-6.4c-1.8-1.4-3.5-3-5.2-4.6
	c-1.1-1.1-1.5-1-2.1,0.3c-0.5,1.1-1,2.2-1.5,3.3c-1.5,3.4-3.2,6.6-5.3,9.7c-8.6,12.8-21,17.1-35.8,15.6c-7.1-0.8-13.5-3.7-19.6-7.4
	c-2.5-1.5-2.5-1.5-3.2,1.3c-0.3,1-0.5,2-0.8,3c-1.3,4.3-3,8.4-5.7,12.1c-5.9,8.1-17.2,14.6-30.1,8.6c-3-1.4-3-1.4-3.8,1.9
	c-1.2,5-2.2,10.2-3.8,15.1c-3,9-9.2,14.4-18.6,16c-2.6,0.4-5.3,0.2-7.9,0.2c-2.4,0.1-2.8,0.4-2.8,2.8c0,3.1-0.1,6.2-0.4,9.3
	c-0.4,4.6-1.2,9.2-2.9,13.6c-1.8,4.8-4.3,9.1-7.9,12.8c-4,4.1-8.8,6-14.6,4.8c-2-0.4-3.9-0.6-5.9-0.9c-2-0.3-2.6,0.2-2.8,2.2
	c-0.1,1-0.1,1.9,0,2.9c0.3,3.9,0.5,7.8,1,11.7c2.7,19.2,10,36.6,21.6,52.2c7.3,9.9,16,18.5,25.1,26.7c12.3,11,25.6,20.4,40.5,27.6
	c50.8,21.7,110.8,18.5,112.3,18.3c2.1-0.2,3.6-1.2,4.2-3.3c0.5-1.8,1.1-3.5,1.6-5.3c6-17.8,10.9-36,15.3-54.2
	c3.9-16.2,6.3-32.7,7.8-49.2c0.8-8,1.3-15.9,1.7-23.9c0.5-9.2,1-18.4,1.1-27.6c0.2-11.5,0.3-23-0.2-34.5c-0.4-8.5-0.8-16.9-1.5-25.4
	c-1-12.3-2.5-24.5-4.5-36.6C650.1,204.6,649.6,201.7,649,198.2z M62,298.6c-0.1,13.7,0.4,26.1,1.3,38.6c0.9,13,2.4,25.9,4.4,38.8
	c3.8,25.3,10.5,49.7,20.2,73.4c7.9,19.4,18,37.8,27,56.8c0.2,0.4,0.4,0.7,0.6,1c4.8,8.5,10.1,16.7,15.5,24.9
	c7.9,12,15.6,24.2,24.5,35.6c0.4,0.5,0.8,1,1.2,1.5c1,1.1,1.3,1.1,2.4,0.3c0.3-0.2,0.6-0.5,0.9-0.8c5-5.1,10.5-9.6,16.2-13.9
	c6-4.4,12-8.9,18-13.2c2.1-1.5,4.1-1.3,5.5,0.6c1.3,1.8,2.3,3.8,3,6c0.5,1.7,0,3-1.3,4c-1,0.7-2,1.4-2.9,2.1c-2,1.5-2.4,3.3-1,5.4
	c1.2,1.9,2.8,3.5,4.2,5.2c0.7,0.7,1.3,0.8,2.1,0.2c1.1-0.7,2.1-1.4,3.2-2.1c2.5-1.5,2.5-1.5,4.2,0.8c3.6,5.2,7.3,10.3,10.9,15.5
	c1.2,1.8,2.4,3.6,3.8,5.2c4.4,4.9,9,6,14.3,3.4c0.8-0.4,1.6-0.8,2.4-1.2c3.4-1.7,4.6-1.5,7,1.5c3,3.8,5.3,8,7.2,12.4
	c2.3,5.4,3.8,11,5.2,16.7c1.3,5.2,2.6,10.4,3.9,15.6c0.4,1.5,0.9,2.9,1.9,4.1c1.3,1.4,2.1,1.6,3.8,0.8c1.6-0.8,2.7-2,3.3-3.6
	c1.3-3.1,2.6-6.2,3.8-9.3c1.9-4.9,3.3-9.8,3.9-15.1c0.1-1.3,0.3-2.6,0.5-3.8c0.3-1.3,0.7-1.4,1.9-1c0.8,0.3,1.6,0.7,2.4,1.2
	c2,1.1,3.9,2.2,5.8,3.4c8.3,5.2,17.6,6.5,27.1,7.2c3,0.3,4.2-1.7,3-4.5c-0.3-0.8-0.8-1.4-1.3-2c-1-1.2-2.1-2.4-3.1-3.6
	c-8.9-10.2-17.7-20.4-25.7-31.4c-2.4-3.4-4.8-6.8-7.1-10.3c-1-1.4-1.7-3-1-4.7c1.3-3.1,0.7-5.9-1.1-8.7c-3-4.6-5.9-9.3-8.8-14
	c-0.4-0.7-0.8-1.4-1.1-2.1c-0.4-1-0.1-1.9,0.9-2.5c0.7-0.4,1.4-0.7,2.2-1c2.2-0.8,4.3-1.6,6.5-2.5c2.1-0.8,2.2-1,1.2-2.9
	c-1.4-2.7-2.7-5.4-4.1-8.1c-1.5-2.8-2.6-3.3-5.6-2c-2.3,0.9-4.5,2-6.8,2.9c-2,0.8-2.9,0.6-4.1-1.2c-0.9-1.3-1.7-2.7-2.5-4.1
	c-1.8-3.2-1.4-4.5,1.8-6.1c0.7-0.4,1.4-0.7,2.2-1c4.6-2,9.3-3.8,14.1-5.4c10.2-3.4,20.6-5.8,31-8.5c19.3-4.9,38.8-8.2,58.6-9.5
	c11.8-0.8,23.6-1.4,35.5-0.8c11,0.6,22,1,33,2.5c3.6,0.5,3.9,0.2,2.8-3.3c-3.5-11.2-8-21.9-14.2-31.9c-5.6-9.1-12.9-16.6-20.2-24.3
	c-2-2.1-3.7-2.1-6.2-0.2c-2.8,2.2-90.1,49-171.6,39.5c-1.9-0.4-3.8-0.8-5.6-1.1c-1.2-0.2-1.4,0.1-1.1,1.3
	c0.1,0.3,10.2,26.7,15.2,39.7c1.1,2.8,1.1,2.8,3.9,1.5c0.6-0.3,1.3-0.6,2-0.8c1.9-0.6,3.5-0.1,4.8,1.2c0.6,0.6,1.1,1.2,1.5,1.9
	c2.9,4.5,5.8,9,8.4,13.7c5.5,10.1,11.5,20,17.7,29.7c2.3,3.7,2.4,3.8-1.5,5.9c-6.8,3.8-13.6,7.6-20.3,11.3
	c-4.3,2.4-8.5,4.9-12.7,7.2c-3.5,1.9-5.8,1.5-8.1-1.7c-5.4-7.3-10.8-14.5-15.2-22.4c-4.4-8-8.7-16-12.8-24.2c-0.3-0.6-0.6-1.3-0.9-2
	c-1.1-2.9-0.6-4.4,2-6.1c1.2-0.8,2.5-1.4,3.8-2.1c2.4-1.4,2.4-1.4,1.4-4c-5.6-14.9-11.2-29.8-16.8-44.7c-0.9-2.3-0.9-2.2-3.3-1.3
	c-5.8,2.2-11.2,5.1-16.2,8.8c-4.4,3.2-8.8,6.4-13.2,9.6c-1.2,0.9-2.5,1.7-4,2.1c-2.2,0.5-4.3-0.4-4.8-2.5c-0.8-3.3-1-6.6,1.5-9.5
	c4.2-4.9,8.9-9.2,14.3-12.8c5.1-3.4,10.6-6,16.2-8.3c1-0.4,2.6-0.4,2.6-1.7c0-1.1-1.5-1.2-2.5-1.6c-15.6-6.9-30.7-14.7-44.9-24.3
	c-12.1-8.3-23-17.8-32.7-28.8c-1.6-1.9-3.1-3.8-4-6.2c-1.1-3-0.1-5.8,2.6-7.5c2.3-1.4,4.7-1.2,7.1,0.8c1.6,1.3,3,2.9,4.4,4.4
	c4.8,5.1,9.7,10.2,15.2,14.7c14,11.6,29.5,20.9,45.7,29c0.9,0.5,1.9,0.8,2.9,1.2c0.7,0.3,1.6,0.9,2.3,0.4c0.9-0.7,0.2-1.7,0-2.4
	c-1.6-6.6-3.4-13.2-4.9-19.8c-4.4-18.6-8-37.4-10.7-56.3c-2-13.9-3.5-27.9-4.5-42c-0.9-12.6-1.5-25.2-1.7-37.9
	c-0.2-11.5,0-23,0.5-34.5c0.4-10.2,1.2-20.4,2-30.6c0.2-2.1,0.1-2.1-2-2c-10,0.4-18.1-3.3-24.5-10.9c-0.9-1-1.6-2.2-2.5-3.2
	c-0.6-0.7-0.8-2.1-1.9-1.9c-0.8,0.1-0.9,1.4-1.3,2.2c-5.2,11.5-14.1,18.4-26.4,20.8c-4.5,0.9-8.9,0.7-13.3-0.6
	c-3.9-1.2-7.3-3.1-10.6-5.4c-1.9-1.4-2.1-1.3-2.8,0.8c-3.8,10.9-7.6,21.7-10.4,32.9c-2.6,10.4-4.6,20.9-5.4,31.7
	C62,284.1,61.8,292,62,298.6z M244.4,199.7c-0.8,0.1-1,0.7-1.4,1.2c-1.7,2-3.6,3.9-5.6,5.6c-7.5,6.4-16,8.7-25.7,7
	c-4.9-0.9-9.5-2.8-14-5c-1.6-0.8-2-0.6-2.2,1.1c-0.9,7.5-2,14.9-2.4,22.4c-0.6,12.5-1.1,25.1-1.4,37.6c-0.5,20.7-0.2,41.4,2.2,62
	c1.7,14.9,3.9,29.6,6.6,44.3c4.2,22.4,10,44.5,14.7,66.7c0.8,3.8,3,5.7,6.8,6.4c13.4,2.8,27,4.3,40.7,4.4c9,0.1,17.9-0.2,26.8-1.8
	c18.8-3.3,37.2-8.2,55.1-14.5c23.1-8.2,43.9-20.4,62.1-36.8c3.9-3.5,7.4-7.3,10.6-11.4c1.8-2.3,2.3-4.9,1.2-7.7
	c-0.2-0.5-0.4-1.1-0.6-1.6c-4.4-11.4-7.7-23.1-9.4-35.1c-1.2-8.4-1.9-16.8-1.3-25.3c0.2-2.3,0.1-4.6,0.1-7c0-1.7-0.4-1.9-2-2.1
	c-0.7-0.1-1.4,0-2.2,0c-3-0.1-5.9-0.5-8.7-1.5c-7.3-2.5-11.4-8.2-11.6-15.9c0-1.4,0-2.9,0-4.3c0-1.1-0.5-1.8-1.6-2
	c-0.6-0.1-1.3-0.3-1.9-0.4c-7.5-1.8-12.4-6.3-14.4-13.9c-0.4-1.4-0.6-2.8-0.8-4.2c-0.3-2-0.4-2.1-2.5-2c-1.1,0-2.2,0.1-3.4,0.1
	c-4.6,0.1-8.9-1-13-2.9c-8.3-3.9-13.6-10.1-15-19.4c-0.2-1-0.2-2.1-0.3-3.1c-0.2-2-0.4-2.2-2.3-1.9c-1.3,0.2-2.5,0.4-3.8,0.6
	c-13.1,1.8-26.7-6.5-31.2-18.9c-1.4-3.8-1.2-3.3-4.2-1.4c-9.6,5.9-19.5,6.6-29.6,1.3c-7.7-4-12.3-10.2-13.7-18.8
	C245,201,245.1,200.2,244.4,199.7z M662.8,456.2c0.5-0.1,0.8-0.1,1.1-0.2c1.1-0.4,2.2-0.8,3.3-1.4c17.5-8.4,33-19.5,46.7-33.2
	c4.9-5,9.4-10.3,13.7-15.7c0.9-1.1,1.7-2.1,2.9-2.8c3.6-2.3,7.5-0.8,8.7,3.3c1.1,3.8,0.1,7.1-2.3,10.1c-1.5,1.9-3.1,3.6-4.7,5.4
	c-6.4,7-12.7,14-19.4,20.6c-0.5,0.5-1.4,0.9-1,1.7c0.3,0.7,1.1,0.5,1.7,0.5c3,0.3,6,0.6,9.1,1c6,0.8,12,2,17.5,4.9
	c4.3,2.3,7.7,5.4,10.4,9.4c1.4,2.2,1.6,4.7,1.6,7.1c0,0.8-0.5,1.3-1.3,1.4c-3.5,0.1-6.9,0.1-9.9-2c-5-3.5-10.6-5.5-16.5-6.8
	c-9.4-2.1-19-2.5-28.6-2.3c-1.5,0-2.8,0.6-4.1,1.2c-10.8,5.3-21.6,10.5-32.4,15.8c-2.2,1.1-3.7,2.6-4.7,4.9c-3,7-6,13.9-9.1,20.9
	c-0.2,0.4-0.3,0.7-0.4,1.1c-0.5,1.6-0.2,2.5,1.2,3.5c0.4,0.3,1,0.6,1.4,0.9c2.5,1.9,3.4,4.3,2.6,7.4c-0.3,1.2-0.7,2.3-1.1,3.4
	c-4.5,13.9-9.7,27.6-16.6,40.6c-1.9,3.7-3.9,7.3-6.3,10.8c-1.7,2.4-3.1,2.8-5.7,1.6c-2.6-1.2-5.2-2.5-7.7-3.9
	c-8.5-4.8-17-9.6-25.5-14.4c-0.8-0.4-1.5-0.9-2.2-1.4c-1.1-0.8-1.5-1.9-1.1-3.2c0.2-0.6,0.4-1.2,0.6-1.8c6.8-17,13.6-34,20.5-51
	c0.4-1.1,1-2.2,1.5-3.3c0.8-1.6,2.1-2.2,3.8-1.8c1.6,0.3,3.1,0.7,4.7,1.1c0.8,0.2,1.6,0.4,2.4,0.3c1.6-0.2,2.7-1.6,2.6-3.2
	c0-1.2-0.6-1.5-2.7-1.6c-0.1,0-0.2,0-0.2,0c-11.8-0.1-23.7-0.4-35.5-1c-6.2-0.3-12.3-0.8-18.4-1.7c-14.6-2.1-28.5-6.4-41.9-12.7
	c-18.4-8.6-35.6-19.2-50.9-32.8c-6-5.4-11.7-11.2-17.9-16.3c-0.4-0.4-0.8-0.7-1.3-1.1c-0.5-0.4-1-0.4-1.4,0.2
	c-0.2,0.3-0.4,0.7-0.6,1.1c-2.9,5.8-5.7,11.6-8.6,17.4c-1.7,3.5-1.6,6.7,0.1,10.1c1.3,2.5,2.4,5,3.7,7.6c3.9,7.9,7.1,16.1,8.6,24.9
	c0.4,2.7,1.3,5.3,2,7.9c0.5,1.8,0.9,1.9,2.6,1.4c2.3-0.7,4.6-1.5,6.8-2.3c3.5-1.2,7.1-2.1,10.7-2.6c4.4-0.5,8.7-1.1,13.1-1.6
	c14.3-1.6,28.7-2.6,43.1-2.4c7.8,0.1,15.5,0.7,23.2,1.9c9.3,1.5,18.3,3.7,27.5,5.7c2.8,0.6,5.6,1.3,8.4,2c2.8,0.8,3.8,2.5,3,5.2
	c-0.6,2.3-1.4,4.6-2.2,6.8c-0.7,2.1-1,2.2-3.2,1.6c-2.5-0.7-4.9-1.5-7.4-2.2c-1.7-0.5-1.9-0.3-2.2,1.4c-0.7,3.9-1.2,7.7-1.8,11.6
	c-0.2,1.3-0.5,2.7-0.5,4c-0.1,1.7,0.4,2.3,2,2.8c0.4,0.1,0.8,0.2,1.1,0.4c1.7,0.6,2.2,1.6,1.9,3.3c-0.1,0.6-0.3,1.2-0.6,1.8
	c-2.6,7-5.1,14-7.7,21c-1.5,3.9-1.8,4.8,1.9,7.5c2.3,1.7,2.4,3,1.2,5.7c-1.2,2.7-2.9,5.2-4.7,7.5c-4.7,6-9.4,12-14,18
	c-0.6,0.8-1.3,1.7-1.7,2.6c-1.5,3.2,0.1,5.8,3.6,6.1c2.1,0.2,4.2,0.1,6.2-0.3c5.3-0.9,10.6-1.4,15.5-3.9c1.3-0.6,1.7-0.3,2,1.1
	c0.4,2.1,0.7,4.3,1,6.4c0.8,5.1,1.6,10.3,2.5,15.4c0.3,1.7,0.7,3.3,1.8,4.6c1.4,1.6,2.8,2,4.7,1.3c2.2-0.8,4-2.2,5-4.5
	c3.2-7,6.6-14.1,10.6-20.7c2.4-4,5-7.8,8.2-11.2c1.3-1.4,2.8-2.7,4.9-2.6c3.8,0.3,6.2-1.5,8-4.6c3.4-5.7,7-11.3,10.1-17.2
	c2.1-3.9,3.1-4.9,7.6-3.2c1.2,0.5,2,0.1,2.6-1c0.9-1.8,1.9-3.5,2.8-5.3c1.6-2.9,3.2-5.7,4.7-8.6c1.2-2.4,0.8-3.8-1.4-5.4
	c-0.9-0.7-1.9-1.2-2.8-1.9c-0.8-0.5-1.6-1.1-2.3-1.7c-1.3-1.1-1.7-2.4-1.3-4.1c0.6-2.4,1.3-4.8,2.1-7.1c1-3,1.1-3,3.8-1.5
	c8.1,4.5,15.9,9.6,23.4,15.1c11.1,8.1,21.6,17,31.9,26.1c2.8,2.5,2.8,2.4,4.9-0.7c10.4-15.5,20.6-31,31.1-46.4
	c9.2-13.5,17.1-27.8,24-42.6c3.8-8.3,7.4-16.6,11.2-25c5.3-11.9,9.3-24.2,12.3-36.8c6-25.7,8.3-51.8,8.5-78.1
	c0.1-11.7,0.1-23.4,0.1-35c0-4,0-4-3.9-4.9c-11.2-2.6-18.8-8.9-20.6-20.8c-0.4-2.5-1.2-3.1-3.7-3.1c-2.6,0-5.1-0.1-7.6-0.7
	c-7-1.7-12.7-5.7-17.3-11.1c-5.2-6-8.6-12.7-8.8-20.8c0-0.5-0.1-1-0.2-1.4c-0.2-1-0.8-1.5-1.9-1.2c-1.1,0.3-2.2,0.6-3.2,0.9
	c-11.9,3-27.5-3.4-32.9-16.1c-1.2-2.8-2.2-5.7-2.9-8.6c-0.7-2.5-0.9-2.6-2.9-1.1c-0.4,0.3-0.9,0.7-1.3,1c-2.4,1.9-5,3.5-7.9,4.3
	c-0.5,0.1-0.9,0.3-1.3,0.5c-1.3,0.6-2,1.5-2.1,3c0,1.4-0.1,2.9,0.1,4.3c0.8,8.9,1.6,17.8,2.5,26.7c0.9,8.8,1.4,17.5,1.6,26.3
	c0.4,16.2-0.5,32.5-1.7,48.7c-0.9,11.5-1.7,23-2.9,34.4c-1.3,13.1-3.2,26-5.6,38.9c-3.6,19.2-8.4,38.1-14.6,56.6
	C663.1,453.9,662.6,454.9,662.8,456.2z M450,617.1c0-1.9,0-3.2,0-4.5c0-1.5-0.4-3-1.1-4.4c-1.1-1.9-2.8-2.9-4.9-2.9
	c-2.2,0-3.8,1.2-4.7,3.1c-0.6,1.2-0.8,2.4-0.9,3.7c-0.6,8.9-1.3,17.9-1.9,26.8c-0.6,9.8-1.8,19.6-3.7,29.3
	c-3,15.4-5.7,30.8-10.8,45.7c-0.5,1.4-0.9,2.9-1,4.4c-0.2,2.3,0.3,4.5,1.8,6.3c1.2,1.4,2.7,1.6,4.3,0.5c0.8-0.6,1.4-1.3,2-2.1
	c1.5-2.1,2.8-4.3,3.7-6.7c4.9-11.9,8.1-24.3,10-37C445.2,662.6,448.5,644.4,450,617.1z M580.5,665.1c-2.1-0.1-4.5,1.1-6.3,2.5
	c-2.6,2-5.2,4-7.8,6c-23,17.5-45.4,35.9-69.9,51.4c-0.7,0.5-1.4,1-2,1.7c-1.9,1.9-2,4.4-0.3,6.5c0.8,1.1,2,1.9,3,2.8
	c0.7,0.6,1.4,0.6,2.2,0.2c3.4-1.7,7-3.2,10.1-5.5c20.8-15.2,41.6-30.4,62.2-45.7c4.2-3.1,8-6.6,11.3-10.7c1-1.2,2-2.5,2.2-4.1
	C585.3,666.6,584,665.3,580.5,665.1z M199.8,169.8c-3.4-0.1-4.1,0.4-4.3,3.9c-0.2,2.6-0.1,5.1-0.2,7.7c-0.1,3.4,1,6.5,3.2,9.1
	c3.4,4.2,7.7,7.1,13,8.5c3.6,0.9,7.1,0.8,10.7-0.3c5.5-1.8,9.5-5.4,12.4-10.4c1.7-3,2.9-6.2,4-9.5c1-2.9,0.4-3.8-2.5-4.3
	c-4.3-0.7-8.7-1.4-13-2C215.3,171.2,207.6,170.3,199.8,169.8z M636.8,113c-2.2,0.8-3.2,2.7-2.5,4.9c0.5,1.6,1.9,2.2,3.3,2.5
	c2.2,0.4,4.4,0.8,6.6,1.1c8.9,1.1,17.6,2.9,26.2,5.6c18.5,5.8,35.3,14.9,50.7,26.6c1.1,0.9,2.2,1.8,3.6,2.4c1.5,0.7,2.9,0.7,4.3-0.3
	c2.4-1.7,2.5-4.5,0.3-6.6c-1.9-1.7-4-3.2-5.9-4.9c-7.9-6.9-16.7-12.3-26.2-16.6c-10.2-4.5-20.4-8.8-31.2-11.5
	C658.8,114.4,644.4,112,636.8,113z M302.2,102.6c-1.9,0-5.4,0.4-4.8,3.6c0.8,1.8,2,3.1,3.7,3.9c2.9,1.2,5.7,2.5,8.6,3.7
	c20,8.2,36.7,20.9,51,37c2.8,3.1,5.2,6.5,7.5,10c1.3,2,2.8,3.9,5,5.1c1.1,0.6,2.5,1.1,3.6,0.1c1-1,2.4-3.6-1.4-9.7
	c-4.4-5.5-20.8-36.5-67.7-52.5C305.8,103.1,303.8,102.8,302.2,102.6z M561.2,218.9c6.2,0.2,11.2-2,15.4-6.5c1.4-1.5,2.7-3.2,3.8-4.9
	c3.3-5.2,5.4-10.9,6.2-17c0.2-1.8,0-2-1.8-1.5c-0.2,0-0.3,0.1-0.4,0.2c-14.7,5.3-29.3,10.5-44,15.8c-2.2,0.8-2.3,1.2-1,3.3
	c2.2,3.6,5.3,6.2,9.1,7.9C552.4,218.1,556.7,218.9,561.2,218.9z M271.9,210c0.8-0.1,1.6-0.1,2.4-0.2c0.6-0.1,1.1-0.2,1.6-0.4
	c8-2.7,13.4-8.2,16.8-15.7c0.7-1.4,0.5-1.7-1-2.3c-0.4-0.2-0.7-0.3-1.1-0.4c-9.7-3.6-19.5-7.3-29.2-10.9c-0.6-0.2-1.2-0.4-1.8-0.6
	c-0.9-0.3-1.4,0.1-1.4,1c0,0.5,0,1,0,1.4c0,4.8,0.2,9.6,0,14.4C257.8,204.5,265.9,210.2,271.9,210z M158.3,195.5
	c5,0,8.8-1.7,11.9-4.9c1.3-1.3,2.4-2.8,3.3-4.4c2.6-4.1,4.2-8.6,5.7-13.2c0.6-2,0.3-2.4-1.9-2.1c-6.7,0.7-13.3,1.5-20,2.2
	c-4.4,0.5-8.9,1-13.3,1.7c-2.6,0.4-3.5,2-2.4,4.3c1.9,4,3.9,7.9,6.7,11.3C150.9,193.8,154.5,195.5,158.3,195.5z M622.6,201.1
	c2.6-0.1,4.6-0.8,6.4-2.4c5.5-4.8,8.9-10.8,10.4-17.9c0.4-1.8,0.1-2.2-1.8-1.9c-3.2,0.4-6.3,0.9-9.5,1.4c-6.4,1-12.8,2-19.2,3.1
	c-2.9,0.5-3.6,1.9-2.6,4.6c0.6,1.7,1.4,3.2,2.4,4.7C612.1,197.8,616.9,200.4,622.6,201.1z M305.7,212.5c0.2,5,2.8,9.2,7.9,11.7
	c5,2.4,9.9,2,14.4-1.6c2.5-2,4.3-4.7,6.1-7.3c0.6-0.8,0.5-1.5-0.4-2c-0.3-0.2-0.7-0.4-1-0.6c-7-4.2-13.9-8.4-20.9-12.6
	c-0.3-0.2-0.7-0.4-1-0.6c-0.8-0.4-1.4-0.3-1.7,0.6C307.5,203.6,305.8,207.5,305.7,212.5z M729.5,220.3c2.5-0.1,4.8-1,6.8-2.6
	c1.8-1.5,3.3-3.2,4.8-5c1.9-2.3,1.9-2.4-0.6-3.9c-4-2.5-8.1-4.9-12.1-7.3c-4.3-2.6-8.6-5.2-12.9-7.8c-1.6-0.9-2.2-0.6-2.3,1.2
	c-0.1,3.7-0.3,7.4,0.1,11C714.6,215.2,721,219.7,729.5,220.3z M99.8,203.5c3.5-0.2,7-1.1,10-3.3c5.9-4.2,9.6-9.9,11.3-16.9
	c0.2-0.7,0.3-1.4,0.3-2.1c0.1-0.8-0.4-1.2-1.2-1c-0.5,0.1-0.9,0.2-1.4,0.3c-4.9,1.4-9.7,3.1-14.4,5.1c-5.7,2.5-11.2,5.5-16.3,9.1
	c-1.8,1.3-1.9,1.7-0.3,3.4C91,201.6,95,203.4,99.8,203.5z M775.7,253.4c0.9,0,1.9,0,2.8-0.2c2.5-0.7,3.3-2.4,2.3-4.8
	c-0.5-1-1.2-1.8-2-2.7c-6.7-7.6-13.8-14.9-20.9-22.1c-0.4-0.5-0.9-0.9-1.4-1.3c-0.7-0.5-1.2-0.3-1.5,0.5c-0.1,0.4-0.1,0.8-0.1,1.2
	c0,3.8-0.1,7.7,0,11.5c0.1,4.2,1.8,7.9,4.7,11C764,251.3,769.4,253.4,775.7,253.4z M659.4,182.4c0,2.9,1.1,5.7,3.4,8.2
	c3.8,4.2,8.7,6.4,14.1,7.5c1.1,0.2,2.2,0.1,3.3-0.1c5.8-1.2,9.8-4.8,12.6-9.8c1.1-1.9,0.8-2.3-1.3-2.7c-4.1-0.9-8.3-1.8-12.4-2.7
	c-5.8-1.2-11.5-2.5-17.3-3.7c-2-0.4-2.4-0.1-2.5,2C659.4,181.4,659.4,181.7,659.4,182.4z M344.3,237.9c0,0.4,0,0.8,0,1.2
	c0.2,7,2.9,10.3,9.7,12c0.1,0,0.2,0,0.2,0.1c5.8,1.4,10-0.6,12.7-5.8c1-2,0.8-3.7-0.7-5.3c-0.7-0.7-1.4-1.3-2.1-1.9
	c-4.4-3.7-8.9-7.3-13.3-11c-0.5-0.4-1-0.8-1.5-1.2c-0.7-0.5-1.4-0.4-1.9,0.3c-0.5,0.7-1,1.5-1.3,2.3
	C344.7,231.5,344.4,234.7,344.3,237.9z M600.1,541.8c-0.1,2.5,1.4,3.8,3.8,3.4c2-0.4,3.2-1.7,4.2-3.3c3.1-4.8,6.1-9.8,8.4-15
	c1.1-2.6,1.8-5.3,2.7-7.9c2.7-7.7,0.9-20-8.2-4.1c-3.4,8.1-6.9,16.2-10.3,24.3C600.4,540.1,600,541,600.1,541.8z M623.7,551.3
	c3.1-6.1,12.2-24.9,12.9-28.4c3.5-7.6,0.4-14.6-6.4-2.6c-0.1,0.2-9.4,18.9-13.6,28.3C615.1,554.4,621.4,555.1,623.7,551.3z
	 M504.8,238.3c2.3,0.1,4.5-0.7,6.3-2.3c5.1-4.4,7.8-10.1,8-16.8c0-0.8,0.4-1.9-0.5-2.4c-0.9-0.5-1.6,0.4-2.3,0.8
	c-6.6,4.1-13.3,8.3-19.9,12.5c-0.3,0.2-0.7,0.4-1,0.7c-0.7,0.5-0.9,1.1-0.4,1.8C497.5,235.7,500.2,238.5,504.8,238.3z M259.5,548
	c0.1-1.1-0.6-2.2-1.3-3.3c-4.1-6.7-8.2-13.3-12.3-20c-0.7-1.2-1.5-2.3-2.5-3.2c-1.6-1.5-3-1.5-4.5,0.1c-0.8,0.8-1.2,1.8-1.3,3
	c-0.1,1.5,0.5,2.8,1.2,4.1c4,7,8.4,13.8,12.7,20.6c0.4,0.6,0.8,1.2,1.3,1.7c1.3,1.4,2.7,1.7,4.1,1.1
	C258.6,551.3,259.5,550.1,259.5,548z M413,510.3C413,510.3,413,510.3,413,510.3c2.6,0.1,5.1,0.1,7.7,0c1.4,0,1.8-0.4,1.4-1.5
	c-0.9-3.3-1.8-6.6-3.4-9.7c-0.8-1.5-1.9-2.5-3.8-2.5c-4.5,0-9-0.1-13.4,0c-1.7,0-2,0.4-1.5,2.1c0.9,3.1,1.8,6.1,2.8,9.2
	c0.5,1.7,1.6,2.5,3.4,2.5C408.4,510.3,410.7,510.3,413,510.3z M241.7,556c0.1-1.2-0.7-2.3-1.4-3.3c-4.1-6.7-8.5-13.1-12.9-19.6
	c-0.4-0.5-0.7-1.1-1.2-1.5c-1.3-1.2-3-1.6-4.1-0.8c-1.5,0.9-2.1,2.6-1.6,4.3c0.4,1.2,0.9,2.4,1.5,3.5c2.6,4.8,5.3,9.6,8.3,14.2
	c1.1,1.7,2.4,3.4,3.8,4.9c0.6,0.6,1.2,1.1,1.8,1.5C238.9,560.8,241.7,559.2,241.7,556z M519.1,505C519.1,505,519.1,505,519.1,505
	c0-2.2,0-4.5,0-6.7c-0.1-2.1-0.9-3-2.9-3c-3.3-0.1-6.5,0-9.8,0c-1.1,0-1.6,0.5-1.5,1.6c0.2,1.6,0.4,3.2,0.6,4.7
	c0.3,3.1,0.6,6.2,1,9.3c0.4,2.7,1.4,3.6,4.1,3.8c1.8,0.1,3.7,0.1,5.5,0c2.2-0.1,3-1,3-3.2C519.2,509.3,519.1,507.1,519.1,505z
	 M554,515.2c0.2,2.1,1.1,3.2,3.2,3.6c1.5,0.3,3,0.5,4.5,0.5c2.3,0,3.4-0.9,3.9-3.1c0.4-1.7,0.7-3.4,0.9-5.2c0.4-2.8,0.9-5.5,1.2-8.3
	c0.2-1.9-0.3-2.6-1.9-3.1c-2.8-0.8-5.6-1.4-8.4-1.7c-2.6-0.2-3,0-3.3,3.4C553.8,504.1,553.7,512.7,554,515.2z M487.3,515.1
	C487.3,515.2,487.3,515.2,487.3,515.1c1.8-0.1,3.7-0.3,5.5-0.5c2.2-0.2,2.4-0.5,2.4-2.7c0.1-4.4-0.8-8.7-1.3-13.1
	c-0.3-2.4-1-2.9-3.4-2.7c-2.8,0.2-5.5,0.6-8.3,1.1c-2,0.3-2.8,1.7-2.5,3.7c0.6,3.4,1.2,6.7,2,10.1c0.8,3.9,1.3,4.2,5.4,4.1
	C487.1,515.1,487.2,515.1,487.3,515.1z M477.3,250.4c0-1,0.1-2.1,0-3.1c-0.1-0.8-0.7-1.1-1.4-0.6c-0.5,0.4-0.9,0.9-1.4,1.3
	c-4.3,4.3-8.5,8.6-12.8,12.9c-1.7,1.7-3.4,3.4-5,5.1c-0.9,1-0.9,1.3,0.3,2c1.9,1.1,3.9,1.9,6,2.2c4.4,0.6,7.7-0.8,10.2-4.7
	C476.2,260.9,477.2,255.8,477.3,250.4z M302.8,508.7c-3.6,0.7-7.4,1.7-11.2,2.9c-1.1,0.3-0.9,1.2-0.5,2c1.6,3.6,3.3,7.3,4.9,10.9
	c0.5,1.1,1.2,1.4,2.3,1.1c1.2-0.3,2.3-0.6,3.5-0.9c3.2-0.9,6.3-1.7,9.5-2.6c1.4-0.4,1.6-0.8,0.9-2.1c-1.7-3.2-3.4-6.3-5.4-9.4
	C305.9,509.3,304.7,508.6,302.8,508.7z M530.5,504.2c0.1,2.2-0.1,5.1,0.4,8c0.3,1.6,1.1,2.6,2.7,3c1.9,0.5,3.9,0.7,5.9,0.8
	c1.7,0.1,2.5-0.7,2.7-2.4c0.5-4.8,1-9.7,1.3-14.5c0.2-2.2-0.8-3.3-3.1-3.4c-2.5-0.1-5.1-0.1-7.7,0c-2,0-2.3,0.4-2.3,2.5
	C530.4,499.9,530.5,501.7,530.5,504.2z M443.5,284.1c-0.8,0.4-1.3,1.3-1.9,2c-5.2,6.5-9,13.7-11.9,21.5c-0.3,0.9-0.7,1.8-1,2.7
	c-0.2,0.7-0.2,1.3,0.5,1.7c3.1,1.6,6.6,2.7,9.4-1.1c2.2-2.9,3.7-6.2,4.5-9.7c1.3-5.3,1.2-10.6,1-16
	C444.2,284.8,444.1,284.4,443.5,284.1z M357,498.4c-3.2,0.5-7.2,1.1-11.1,1.7c-1.4,0.2-1.7,0.7-1.3,2c1.2,3.5,2.4,6.9,3.7,10.4
	c0.5,1.3,1.5,1.8,2.8,1.6c1.1-0.1,2.2-0.3,3.3-0.5c2.8-0.4,5.7-0.9,8.5-1.3c1-0.2,1.6-0.7,1.3-1.8c-1.1-3.4-2.1-6.8-3.3-10.2
	C360.4,498.7,359.4,498.2,357,498.4z M381.7,510.9c2.6,0,5.3-0.4,7.9-0.6c1.7-0.1,2-0.5,1.4-2.2c-1.1-3.1-2.3-6.2-3.4-9.2
	c-0.5-1.4-1.5-2.2-3.1-2.2c-3.6,0.1-7.2,0.3-10.8,0.4c-0.9,0-1.4,0.5-1.1,1.4c0.9,3.5,1.8,7,3,10.4c0.5,1.3,1.5,2,3,2
	C379.6,510.9,380.6,510.9,381.7,510.9z M326.5,518c3.5-0.1,6.1-1,8.6-1.8c2.1-0.7,2.2-0.9,1.4-2.9c-0.9-2.5-1.9-4.9-3-7.3
	c-1.6-3.8-1.7-3.8-5.7-3.1c-2.9,0.5-5.8,1.1-8.7,1.7c-0.8,0.2-1.7,0.5-1.2,1.6c1.4,3.4,2.7,6.9,5.1,9.8
	C324.1,517.3,325.5,518.1,326.5,518z M674.7,551.8c0.1-0.8-0.4-1.6-1.1-2.3c-1.3-1.2-2.6-2.4-4-3.5c-1.3-1.1-1.7-1-2.6,0.6
	c-2.5,4.6-4.9,9.2-7.3,13.7c-0.2,0.4-0.3,0.7-0.5,1.1c-0.6,1.7-0.3,3.2,1.2,4.3c0.9,0.7,1.8,1.4,2.7,1.9c1.9,1.1,2.6,1,3.7-0.9
	c2.4-4.1,4.7-8.3,7.1-12.5C674.4,553.6,674.7,552.9,674.7,551.8z M434.8,499c-0.3,0-1,0-1.7,0.1c-0.9,0.1-1.3,0.6-1.2,1.4
	c0.6,3.2,1.1,6.5,2.2,9.6c0.3,1,1,1.6,2,1.9c3,0.8,6.1,1.2,9.2,1.6c1.4,0.2,1.9-0.4,1.7-1.8c-0.2-1.7-0.6-3.5-1.2-5.1
	C444,501.4,440.7,499,434.8,499z M378.6,264.8c0.1,1.1,0.1,2.2,0.3,3.3c0.5,2.9,2.3,4.2,5.2,4.1c3-0.1,5.5-1.5,7.8-3.4
	c0.8-0.7,0.8-1.3,0.1-2c-3.2-3.7-6.4-7.5-9.7-11.2c-1.1-1.2-1.9-1-2.3,0.6C379.3,259.1,378.6,261.9,378.6,264.8z M674.9,575.6
	c0,0.7,0.4,1.4,1,1.9c1,0.8,2,1.6,3,2.4c0.9,0.7,1.5,0.6,2.1-0.5c2.4-4.9,5-9.7,7.3-14.6c1.3-2.8,0.5-4.3-2.3-5.5
	c-1.1-0.5-1.8-0.2-2.4,0.8c-2.6,4.2-5.2,8.4-7.9,12.6C675.3,573.5,674.9,574.4,674.9,575.6z M688.4,588.5c0,1.2,0.8,2.6,1.8,3
	c1.1,0.4,1.6-0.5,2.1-1.1c3.2-3.9,6.5-7.9,9.4-12.1c2.2-3.1,2-4-0.8-6.4c-0.2-0.2-0.4-0.3-0.6-0.5c-1.7-1.3-2-1.3-3,0.6
	c-2.6,4.8-5.2,9.7-8.1,14.4C688.8,587,688.5,587.8,688.4,588.5z M402,295.4c1.7,0,3.3-0.2,5-0.6c1.6-0.4,2-1.1,1.4-2.6
	c-1.7-3.6-3.6-7.1-5.7-10.5c-0.9-1.5-2.3-1.4-3,0.4c-1,2.4-2.1,4.9-2.5,7.5C396.3,294.2,397.8,295.6,402,295.4z M594.6,654.3
	c0,3.6,2.2,6.1,5.6,6.2c3.4,0.1,6.2-2.7,6.2-6c0-3.4-2.7-6.1-6-6.2C597,648.3,594.7,650.7,594.6,654.3z M391.9,187.4
	c-0.1-2.2-0.9-4-2.6-5.4c-2.1-1.7-5.3-1.3-6.5,0.8c-1.7,2.9-1.1,6.8,1.6,8.8c3.2,2.4,6.8,0.9,7.4-3
	C391.9,188.2,391.9,187.8,391.9,187.4z M447.4,588c-0.1-1.4-0.4-3-1.4-4.3c-2.1-2.8-5.7-2.8-7.6,0.2c-1.3,2.1-1.1,4.3-0.1,6.4
	c1.1,2.3,3.3,3.4,5.4,2.9C446.1,592.6,447.4,590.7,447.4,588z M190.7,572.2c0-0.1,0-0.4-0.1-0.6c-1.2-2.7-2.9-5.1-4.7-7.5
	c-0.4-0.5-1-0.6-1.5-0.2c-1.5,1-2.9,2-3.9,3.5c-0.4,0.7-0.6,1.5-0.3,2.3c1.1,2.4,2.5,4.7,3.9,6.9c0.3,0.5,0.9,0.8,1.4,0.5
	c1.7-0.9,3.3-1.9,4.6-3.4C190.6,573.2,190.7,572.8,190.7,572.2z M175,584.3c0-1.2-0.4-2.5-1.6-4.2c-3.5-5.1-2.3-4.8-7.1-0.8
	c-0.1,0.1-0.2,0.2-0.3,0.3c-0.5,0.5-0.7,1.1-0.2,1.7c2,2.3,3.9,4.6,5.9,6.9c0.4,0.4,0.9,0.5,1.2,0.1
	C173.8,587,174.9,585.7,175,584.3z M748.2,167c0-2.4-1.4-4.3-3.6-5c-1.9-0.6-4.9,1.2-5.1,3.1c-0.3,2.3,1.4,4.9,3.6,5.6
	C746,171.6,748.2,170.1,748.2,167z M801.2,278.6c-0.8-5.3-3-10.1-6.9-14.1c-0.7-0.8-1.5-0.5-1.6,0.5c-0.5,4.6-0.4,9.1,3,12.8
	c1,1.1,2.3,2,3.7,2.5C800.7,280.6,801.2,280.2,801.2,278.6z M273.4,568.9c-2.5,1.8-5.1,3.3-7.7,4.8c-3.7,2.1-7.4,4.2-11,6.3
	c-1.8,1-1.8,1.3-0.6,2.9c2.1,2.7,4,5.6,5.7,8.6c4.7,8.4,7.5,17.4,9.7,26.7c0.4,1.5,0.7,3,1,4.4c0.1,0.4,0.2,0.8,0.7,0.9
	c0.6,0.1,0.8-0.3,1.1-0.7c1-1.4,1.5-3,1.8-4.6c1-5.7,1.9-11.3,2.9-17c0.3-1.5,0.5-3,1.1-4.4c0.7-1.5,1.4-1.9,3-1.8
	c1,0,1.9,0.3,2.7,0.8c1.5,0.8,3,1.5,4.4,2.4c4.6,2.7,9.3,5.3,13.9,8c1.5,0.9,3.2,1.6,4.9,1.8c1.2,0.2,1.6-0.3,1.3-1.5
	c-0.3-1.2-1.1-2.1-1.9-3c-6.2-7.8-12.5-15.6-18.7-23.4c-2.6-3.2-5.3-6.4-7.3-10.1c-0.3-0.6-0.8-1.2-1.3-1.7
	c-0.6-0.6-1.3-0.9-1.7-0.9C275.7,567.4,274.6,568.1,273.4,568.9z M607.4,575.4c-6.8-3.8-13.6-7.5-20.3-11.3
	c-0.2-0.1-0.4-0.2-0.6-0.3c-0.8-0.4-1.5-0.3-2.1,0.4c-0.3,0.5-0.7,0.9-1,1.4c-4.6,6.5-9.1,13.1-13.7,19.7c-0.3,0.4-0.5,0.8-0.8,1.2
	c-0.3,0.6-0.7,1.1-0.2,1.8c0.5,0.7,1.2,0.3,1.7,0.1c0.9-0.4,1.7-0.8,2.6-1.3c3.3-1.7,6.6-3.5,10-5.1c4.3-2,7.2-0.2,7.7,4.5
	c0.3,2.4,0.4,4.8,0.4,7.2c0,2.2,0,4.5,0.3,6.7c0.1,1,0.4,2.1,0.8,3c0.5,0.9,0.9,0.9,1.6,0.1c0.2-0.2,0.3-0.4,0.4-0.6
	c4.8-7.6,9.5-15.1,14.3-22.7c0.4-0.7,0.8-1.4,0.8-2.2C609.3,576.6,608.4,575.9,607.4,575.4z"/>
</svg>
